<svg xmlns="http://www.w3.org/2000/svg" xmlns:xlink="http://www.w3.org/1999/xlink"><polygon points="92,39 91,39 91,38 91,38 91,37 91,36 91,36 91,35 90,35 90,34 90,34 89,33 89,33 88,32 88,32 87,31 87,31 86,31 86,30 85,30 85,30 84,30 83,30 83,30 82,30 82,29 82,30 81,30 81,30 80,30 79,30 79,30 78,30 78,31 77,31 77,31 76,32 76,32 75,33 75,33 74,34 74,34 74,35 73,35 73,36 73,36 73,37 73,38 73,38 73,39 72,39 73,39 73,40 73,40 73,41 73,42 73,42 73,43 74,43 74,44 74,44 75,45 75,45 76,46 76,46 77,47 77,47 78,47 78,48 79,48 79,48 80,48 81,48 81,48 82,48 82,49 82,48 83,48 83,48 84,48 85,48 85,48 86,48 86,47 87,47 87,47 88,46 88,46 89,45 89,45 90,44 90,44 90,43 91,43 91,42 91,42 91,41 91,40 91,40 91,39" style="stroke:#ff0000; fill:#0000ff;" /><polygon points="99,63 98,63 98,62 98,62 98,61 98,60 98,60 98,59 97,59 97,58 97,58 96,57 96,57 95,56 95,56 94,55 94,55 93,55 93,54 92,54 92,54 91,54 90,54 90,54 89,54 89,53 89,54 88,54 88,54 87,54 86,54 86,54 85,54 85,55 84,55 84,55 83,56 83,56 82,57 82,57 81,58 81,58 81,59 80,59 80,60 80,60 80,61 80,62 80,62 80,63 79,63 80,63 80,64 80,64 80,65 80,66 80,66 80,67 81,67 81,68 81,68 82,69 82,69 83,70 83,70 84,71 84,71 85,71 85,72 86,72 86,72 87,72 88,72 88,72 89,72 89,73 89,72 90,72 90,72 91,72 92,72 92,72 93,72 93,71 94,71 94,71 95,70 95,70 96,69 96,69 97,68 97,68 97,67 98,67 98,66 98,66 98,65 98,64 98,64 98,63" style="stroke:#ff0000; fill:#0000ff;" /><polygon points="108,97 107,97 107,96 107,96 107,95 107,94 107,94 107,93 106,93 106,92 106,92 105,91 105,91 104,90 104,90 103,89 103,89 102,89 102,88 101,88 101,88 100,88 99,88 99,88 98,88 98,87 98,88 97,88 97,88 96,88 95,88 95,88 94,88 94,89 93,89 93,89 92,90 92,90 91,91 91,91 90,92 90,92 90,93 89,93 89,94 89,94 89,95 89,96 89,96 89,97 88,97 89,97 89,98 89,98 89,99 89,100 89,100 89,101 90,101 90,102 90,102 91,103 91,103 92,104 92,104 93,105 93,105 94,105 94,106 95,106 95,106 96,106 97,106 97,106 98,106 98,107 98,106 99,106 99,106 100,106 101,106 101,106 102,106 102,105 103,105 103,105 104,104 104,104 105,103 105,103 106,102 106,102 106,101 107,101 107,100 107,100 107,99 107,98 107,98 107,97" style="stroke:#ff0000; fill:#0000ff;" /><polygon points="122,131 121,131 121,130 121,130 121,129 121,128 121,128 121,127 120,127 120,126 120,126 119,125 119,125 118,124 118,124 117,123 117,123 116,123 116,122 115,122 115,122 114,122 113,122 113,122 112,122 112,121 112,122 111,122 111,122 110,122 109,122 109,122 108,122 108,123 107,123 107,123 106,124 106,124 105,125 105,125 104,126 104,126 104,127 103,127 103,128 103,128 103,129 103,130 103,130 103,131 102,131 103,131 103,132 103,132 103,133 103,134 103,134 103,135 104,135 104,136 104,136 105,137 105,137 106,138 106,138 107,139 107,139 108,139 108,140 109,140 109,140 110,140 111,140 111,140 112,140 112,141 112,140 113,140 113,140 114,140 115,140 115,140 116,140 116,139 117,139 117,139 118,138 118,138 119,137 119,137 120,136 120,136 120,135 121,135 121,134 121,134 121,133 121,132 121,132 121,131" style="stroke:#ff0000; fill:#0000ff;" /><line x1="19" y1="91" x2="29" y2="81" style="stroke:#0000ff;"/></svg>